<mxfile host="65bd71144e">
    <diagram id="0DtjSzKA67IGTxJF5dop" name="Page-1">
        <mxGraphModel dx="905" dy="414" grid="1" gridSize="10" guides="1" tooltips="1" connect="1" arrows="1" fold="1" page="1" pageScale="1" pageWidth="827" pageHeight="1169" math="0" shadow="0">
            <root>
                <mxCell id="0"/>
                <mxCell id="1" parent="0"/>
                <mxCell id="11" style="edgeStyle=orthogonalEdgeStyle;rounded=0;orthogonalLoop=1;jettySize=auto;html=1;exitX=0;exitY=0;exitDx=70;exitDy=32;exitPerimeter=0;entryX=0;entryY=0;entryDx=0;entryDy=32;entryPerimeter=0;labelBackgroundColor=#F4F1DE;strokeColor=#E07A5F;fontColor=#393C56;" parent="1" source="2" target="5" edge="1">
                    <mxGeometry relative="1" as="geometry"/>
                </mxCell>
                <mxCell id="2" value="Service" style="shape=folder;fontStyle=1;spacingTop=10;tabWidth=40;tabHeight=14;tabPosition=left;html=1;fillColor=#F2CC8F;strokeColor=#E07A5F;fontColor=#393C56;" parent="1" vertex="1">
                    <mxGeometry x="414" y="240" width="70" height="50" as="geometry"/>
                </mxCell>
                <mxCell id="8" style="edgeStyle=orthogonalEdgeStyle;rounded=0;orthogonalLoop=1;jettySize=auto;html=1;exitX=0;exitY=0;exitDx=70;exitDy=32;exitPerimeter=0;entryX=0.182;entryY=0.041;entryDx=0;entryDy=0;entryPerimeter=0;labelBackgroundColor=#F4F1DE;strokeColor=#E07A5F;fontColor=#393C56;" parent="1" source="3" target="2" edge="1">
                    <mxGeometry relative="1" as="geometry">
                        <Array as="points">
                            <mxPoint x="427" y="152"/>
                        </Array>
                    </mxGeometry>
                </mxCell>
                <mxCell id="3" value="API" style="shape=folder;fontStyle=1;spacingTop=10;tabWidth=40;tabHeight=14;tabPosition=left;html=1;fillColor=#F2CC8F;strokeColor=#E07A5F;fontColor=#393C56;" parent="1" vertex="1">
                    <mxGeometry x="240" y="120" width="70" height="50" as="geometry"/>
                </mxCell>
                <mxCell id="7" style="edgeStyle=orthogonalEdgeStyle;rounded=0;orthogonalLoop=1;jettySize=auto;html=1;exitX=0;exitY=0;exitDx=40;exitDy=0;exitPerimeter=0;entryX=0;entryY=0;entryDx=0;entryDy=32;entryPerimeter=0;labelBackgroundColor=#F4F1DE;strokeColor=#E07A5F;fontColor=#393C56;" parent="1" source="4" target="3" edge="1">
                    <mxGeometry relative="1" as="geometry"/>
                </mxCell>
                <mxCell id="10" style="edgeStyle=orthogonalEdgeStyle;rounded=0;orthogonalLoop=1;jettySize=auto;html=1;exitX=0.5;exitY=1;exitDx=0;exitDy=0;exitPerimeter=0;entryX=0;entryY=0;entryDx=0;entryDy=32;entryPerimeter=0;labelBackgroundColor=#F4F1DE;strokeColor=#E07A5F;fontColor=#393C56;" parent="1" source="4" target="6" edge="1">
                    <mxGeometry relative="1" as="geometry"/>
                </mxCell>
                <mxCell id="4" value="MÃ©tier" style="shape=folder;fontStyle=1;spacingTop=10;tabWidth=40;tabHeight=14;tabPosition=left;html=1;fillColor=#F2CC8F;strokeColor=#E07A5F;fontColor=#393C56;" parent="1" vertex="1">
                    <mxGeometry x="70" y="240" width="70" height="50" as="geometry"/>
                </mxCell>
                <mxCell id="5" value="Controller" style="shape=folder;fontStyle=1;spacingTop=10;tabWidth=40;tabHeight=14;tabPosition=left;html=1;fillColor=#F2CC8F;strokeColor=#E07A5F;fontColor=#393C56;" parent="1" vertex="1">
                    <mxGeometry x="640" y="240" width="70" height="50" as="geometry"/>
                </mxCell>
                <mxCell id="9" style="edgeStyle=orthogonalEdgeStyle;rounded=0;orthogonalLoop=1;jettySize=auto;html=1;exitX=0;exitY=0;exitDx=70;exitDy=14;exitPerimeter=0;entryX=0.384;entryY=1.029;entryDx=0;entryDy=0;entryPerimeter=0;labelBackgroundColor=#F4F1DE;strokeColor=#E07A5F;fontColor=#393C56;" parent="1" source="6" target="2" edge="1">
                    <mxGeometry relative="1" as="geometry"/>
                </mxCell>
                <mxCell id="6" value="DAO" style="shape=folder;fontStyle=1;spacingTop=10;tabWidth=40;tabHeight=14;tabPosition=left;html=1;fillColor=#F2CC8F;strokeColor=#E07A5F;fontColor=#393C56;" parent="1" vertex="1">
                    <mxGeometry x="230" y="360" width="70" height="50" as="geometry"/>
                </mxCell>
            </root>
        </mxGraphModel>
    </diagram>
</mxfile>